<svg xmlns="http://www.w3.org/2000/svg" viewBox="0 0 24 24" fill="white">
  <path d="M16.365 1.43c0 1.14-.42 2.17-1.13 2.93-.74.79-1.95 1.4-3.02 1.32-.13-1.09.39-2.22 1.12-2.97.77-.8 2.07-1.37 3.03-1.28zM20.92 17.22c-.46 1.06-1.02 2.04-1.73 2.98-.95 1.27-1.94 2.53-3.45 2.56-1.47.03-1.94-.87-3.62-.87-1.68 0-2.2.84-3.6.9-1.43.06-2.53-1.4-3.48-2.66C2.26 17.9 1 14.8 1 11.85c0-2.72 1.77-4.18 3.5-4.18 1.44 0 2.64.95 3.55.95.88 0 2.26-1.18 3.82-1.01.65.03 2.46.26 3.63 1.96-.09.06-2.17 1.26-2.15 3.76.02 3 2.64 3.99 2.67 4.01z"></path>
</svg>