<svg xmlns="http://www.w3.org/2000/svg" viewBox="0 0 48 48">
  <path fill="#EA4335" d="M24 9.5c3.3 0 6.2 1.1 8.5 3.3l6.3-6.3C34.8 2.4 29.8 0 24 0 14.6 0 6.5 5.4 2.6 13.3l7.4 5.7C12 13.3 17.5 9.5 24 9.5z"></path>
  <path fill="#34A853" d="M46.1 24.5c0-1.6-.1-3.2-.4-4.7H24v9h12.5c-.5 2.7-2 5-4.3 6.5l6.6 5.1c3.8-3.5 6.3-8.7 6.3-15.9z"></path>
  <path fill="#4A90E2" d="M10 28.9c-1-2.7-1-5.6 0-8.3l-7.4-5.7C.9 18.1 0 20.9 0 24s.9 5.9 2.6 8.6l7.4-5.7z"></path>
  <path fill="#FBBC05" d="M24 48c6.5 0 12-2.1 16-5.8l-6.6-5.1c-2 1.3-4.5 2.1-9.4 2.1-6.5 0-12-3.8-14-9.5l-7.4 5.7C6.5 42.6 14.6 48 24 48z"></path>
</svg>